<?xml version="1.0" encoding="UTF-8"?>
<!DOCTYPE svg PUBLIC "-//W3C//DTD SVG 1.1//EN" "http://www.w3.org/Graphics/SVG/1.1/DTD/svg11.dtd">
<!-- Creator: CorelDRAW -->
<svg xmlns="http://www.w3.org/2000/svg" xml:space="preserve" width="2048px" height="2048px" style="shape-rendering:geometricPrecision; text-rendering:geometricPrecision; image-rendering:optimizeQuality; fill-rule:evenodd; clip-rule:evenodd"
viewBox="0 0 2048 2048"
 xmlns:xlink="http://www.w3.org/1999/xlink">
 <defs>
  <style type="text/css">
   <![CDATA[
    .fil2 {fill:none}
    .fil1 {fill:#212121;fill-rule:nonzero}
    .fil0 {fill:#66BB6A;fill-rule:nonzero}
   ]]>
  </style>
 </defs>
 <g id="Layer_x0020_1">
  <metadata id="CorelCorpID_0Corel-Layer"/>
  <path class="fil0" d="M316.42 457.81l66.2091 -63.1512c38.8465,-37.0524 89.3327,-54.8457 139.375,-53.6634 50.0457,1.18228 99.6556,21.3614 136.747,60.2493l224.03 234.88 22.0028 23.0681 -23.1272 22.0571 -302.666 288.686 -23.0669 22.0028 -22.0583 -23.1272 -224.032 -234.88c-37.0524,-38.8477 -54.8457,-89.3339 -53.6634,-139.376 1.18228,-50.0433 21.3614,-99.6556 60.2493,-136.746zm110.21 -16.9016l-66.2091 63.1512c-26.1378,24.9307 -39.7028,58.3087 -40.4989,91.9961 -0.796064,33.6945 11.1945,67.6985 36.1618,93.8753l201.973 211.754 256.473 -244.627 -202.029 -211.813c-24.9307,-26.1378 -58.3087,-39.7028 -91.9973,-40.4989 -33.6945,-0.796064 -67.6985,11.1957 -93.8741,36.1618z"/>
  <polygon class="fil0" points="731.449,780.468 1390.67,1471.62 1344.42,1515.62 685.199,824.469 "/>
  <path class="fil0" d="M1345.55 1470.49c30.4831,-29.0752 70.1032,-43.037 109.374,-42.1099 39.274,0.927166 78.2115,16.7669 107.324,47.2902l9.52442 9.98623 22.0004 23.0669 -23.1248 22.0583 -175.628 167.516 -23.0669 22.0004 -22.0583 -23.1248 -9.5256 -9.98623c-29.0752,-30.4831 -43.037,-70.102 -42.1099,-109.373 0.927166,-39.2729 16.7669,-78.2115 47.2902,-107.324zm107.874 21.6414c-22.9229,-0.540945 -46.0607,7.61812 -63.8729,24.6083 -17.7744,16.9536 -26.9988,39.6567 -27.5398,62.5749 -0.403937,17.1331 4.05355,34.3855 13.4244,49.4457l126.745 -120.891c-14.5878,-10.0677 -31.6122,-15.3331 -48.7571,-15.7382z"/>
  <polygon class="fil1" points="1393.35,765.795 567.672,1472.65 526.173,1424.15 1351.85,717.295 "/>
  <path class="fil1" d="M569.546 1425.78l0.0011811 0.0011811 1.6252 1.87559c31.4315,36.7146 44.9941,82.8402 41.5276,127.572 -3.47599,44.85 -23.9988,88.4103 -60.7217,119.849l-12.4028 10.6169 -24.2386 20.7484 -20.7614 -24.2492 -186.727 -218.116 -20.7508 -24.241 24.2516 -20.7591 12.4028 -10.6169c36.7146,-31.4315 82.839,-44.9941 127.571,-41.5276 44.0811,3.41811 86.915,23.3008 118.22,58.8485l0.00236221 -0.00236221zm-20.5973 124.699c2.22047,-28.6418 -6.35906,-58.0524 -26.2713,-81.3154l-0.00708662 -0.00826772c-19.9099,-23.2559 -47.5725,-36.2587 -76.0973,-38.4697 -23.6977,-1.83662 -47.9221,3.71929 -68.7556,16.9713l143.784 167.954c16.3004,-18.5185 25.5177,-41.53 27.3473,-65.1319z"/>
  <path class="fil1" d="M1536.65 402.824l-173.86 148.84c-16.2154,13.8815 -23.6906,35.8796 -22.6701,60.13 1.1315,26.8914 12.5599,56.1142 34.0099,81.1701l53.3989 62.3752c21.378,24.9721 48.5292,40.7422 75.0485,46.0288 23.7957,4.74449 46.6512,0.770079 62.8158,-13.0689l173.86 -148.84 41.4992 48.5008 -173.86 148.84c-31.9642,27.365 -74.3245,35.791 -116.816,27.3177 -39.7677,-7.92875 -79.9855,-30.9945 -111.049,-67.2792l-53.3989 -62.3752c-30.991,-36.2008 -47.5512,-79.5308 -49.2603,-120.17 -1.82008,-43.2792 13.0063,-83.8075 44.9221,-111.13l173.86 -148.84 41.4992 48.5008z"/>
  <polygon class="fil1" points="1618.01,497.869 1365.43,714.102 1323.94,665.601 1576.52,449.368 "/>
  <polygon class="fil1" points="1699.38,592.914 1446.8,809.147 1405.3,760.646 1657.88,544.413 "/>
 </g>
 <rect class="fil2" width="2048" height="2048"/>
</svg>
