<?xml version="1.0" standalone="no"?>
<!DOCTYPE svg PUBLIC "-//W3C//DTD SVG 20010904//EN"
 "http://www.w3.org/TR/2001/REC-SVG-20010904/DTD/svg10.dtd">
<svg version="1.0" xmlns="http://www.w3.org/2000/svg"
 width="1342.000000pt" height="1534.000000pt" viewBox="0 0 1342.000000 1534.000000"
 preserveAspectRatio="xMidYMid meet">

<g transform="translate(0.000000,1534.000000) scale(0.100000,-0.100000)"
fill="#000000" stroke="none">
<path d="M7778 12816 c-32 -43 -63 -186 -40 -186 18 0 75 191 61 204 -2 2 -11
-6 -21 -18z"/>
<path d="M7320 12557 c0 -3 17 -17 37 -33 20 -15 33 -23 29 -16 -8 13 -66 56
-66 49z"/>
<path d="M7708 12526 c-9 -7 -18 -23 -20 -37 -5 -34 -17 -50 -36 -47 -14 2
-16 -4 -14 -32 5 -43 21 -65 36 -50 7 7 17 2 33 -17 l22 -28 1 35 c1 28 3 31
10 15 12 -29 18 80 7 125 -11 45 -18 51 -39 36z"/>
<path d="M8095 12139 c-4 -6 -25 -23 -47 -39 -31 -23 -47 -28 -71 -23 -18 3
-38 10 -44 16 -7 5 -13 6 -13 1 1 -13 30 -50 30 -38 1 5 9 -1 19 -13 l19 -23
38 39 c63 63 88 91 81 91 -3 0 -9 -5 -12 -11z"/>
<path d="M7813 12005 c3 -22 9 -67 12 -100 5 -55 21 -141 31 -174 6 -19 34 5
34 29 0 10 7 23 15 30 8 6 14 15 13 18 -1 4 5 21 14 37 16 31 21 105 6 105 -4
0 -8 7 -8 15 0 14 -7 16 -65 19 -10 1 -24 11 -31 24 -19 39 -26 38 -21 -3z"/>
<path d="M8453 11370 c-44 -19 -282 -161 -322 -192 -13 -10 -18 -18 -12 -18
22 0 237 109 256 130 10 11 41 34 69 52 63 39 60 37 55 42 -2 3 -23 -3 -46
-14z"/>
<path d="M7694 11315 c-11 -8 -9 -20 6 -65 11 -30 20 -69 20 -87 0 -26 4 -33
19 -33 15 0 19 10 24 57 3 31 13 63 22 72 15 15 16 11 10 -50 -5 -46 -3 -69 5
-74 17 -11 23 0 31 59 4 30 10 68 14 85 6 27 4 31 -14 31 -12 0 -21 4 -21 10
0 13 -98 8 -116 -5z m56 -45 c0 -5 -4 -10 -10 -10 -5 0 -10 5 -10 10 0 6 5 10
10 10 6 0 10 -4 10 -10z"/>
<path d="M6360 10745 c-8 -2 -33 -7 -55 -10 l-39 -7 27 -16 c15 -9 27 -20 27
-24 0 -5 5 -8 10 -8 6 0 23 -14 39 -32 30 -34 51 -31 51 7 0 26 10 35 55 50
17 6 30 17 30 25 0 12 -15 15 -65 17 -36 0 -72 0 -80 -2z"/>
<path d="M6400 10580 c-8 -5 12 -31 62 -82 75 -77 156 -125 297 -174 l53 -19
19 23 c14 18 16 29 8 48 -5 14 -6 30 -3 36 4 7 2 8 -5 4 -7 -5 -15 3 -22 21
-8 26 -19 32 -80 47 -42 12 -78 28 -92 42 -12 13 -28 24 -34 24 -7 0 -13 4
-13 10 0 5 -26 8 -57 8 -32 -1 -72 3 -89 9 -17 6 -37 7 -44 3z"/>
<path d="M7690 10453 c0 -47 -7 -87 -50 -278 -16 -71 -41 -179 -54 -240 -14
-60 -32 -137 -40 -170 -25 -99 -54 -230 -92 -420 -38 -193 -50 -228 -76 -233
-13 -2 -18 6 -23 35 -6 42 -41 225 -55 288 -5 22 -15 54 -23 70 -20 41 -32 86
-18 65 9 -13 11 -11 11 6 0 12 -20 64 -45 115 -33 67 -44 84 -40 59 3 -19 17
-52 31 -73 28 -43 27 -54 -6 -37 -31 17 -34 7 -11 -37 46 -91 82 -228 102
-383 46 -374 50 -457 49 -1110 -2 -764 -9 -941 -46 -1105 -14 -66 -30 -140
-35 -165 -12 -71 -103 -473 -155 -690 -19 -80 -46 -194 -61 -255 -31 -131 -35
-141 -80 -180 -18 -16 -40 -48 -48 -70 -7 -22 -17 -40 -21 -40 -4 0 -48 79
-96 175 -49 96 -113 217 -142 270 -108 191 -108 192 -100 281 3 43 9 79 13 79
3 0 24 16 46 34 l40 34 -45 -3 c-32 -2 -46 -8 -48 -19 -2 -9 -10 -16 -18 -16
-9 0 -14 -11 -14 -34 0 -18 -3 -47 -6 -64 l-6 -31 -22 26 -22 25 -13 -25 c-13
-24 -10 -31 37 -109 67 -111 125 -217 168 -308 20 -41 52 -109 72 -150 19 -41
53 -136 75 -210 80 -274 74 -225 82 -687 8 -456 9 -444 -44 -465 -29 -11 -97
15 -119 44 -15 20 -43 23 -59 7 -6 -6 -16 -8 -22 -5 -18 12 -12 33 11 39 12 4
19 9 16 12 -11 11 -161 17 -182 7 -12 -6 -29 -13 -40 -16 -16 -6 -18 -13 -12
-53 3 -25 11 -52 17 -59 18 -22 -9 -47 -43 -40 -38 7 -78 -12 -78 -38 0 -31
-10 -40 -57 -55 -41 -14 -44 -13 -67 12 -15 16 -36 27 -51 27 -17 0 -40 15
-69 45 -29 30 -53 45 -69 45 -14 0 -27 -3 -29 -7 -10 -23 -66 -50 -94 -46 -27
4 -33 1 -45 -25 -14 -31 -33 -38 -138 -45 -36 -2 -50 -19 -32 -41 15 -17 -93
-146 -123 -146 -27 0 -66 -27 -66 -44 0 -23 -48 -48 -79 -41 -17 4 -32 1 -38
-7 -13 -17 -14 -90 -1 -105 14 -17 28 -85 22 -105 -8 -28 -60 -48 -93 -37 -23
8 -37 6 -68 -9 -39 -20 -62 -19 -76 4 -12 20 -61 17 -90 -6 -14 -11 -30 -20
-35 -20 -14 0 -22 -25 -22 -69 0 -69 -64 -95 -111 -45 -21 22 -30 25 -63 19
-22 -3 -54 -19 -73 -35 -40 -35 -54 -37 -71 -10 -7 11 -18 20 -25 20 -16 0
-67 -58 -67 -75 0 -28 -20 -24 -51 10 -21 23 -44 37 -68 41 -20 3 -48 10 -63
16 -22 8 -34 6 -62 -12 -20 -12 -45 -33 -56 -47 l-20 -25 -82 12 -81 13 -30
-33 c-28 -32 -29 -32 -109 -29 l-81 4 -16 -30 c-25 -46 -41 -98 -41 -134 0
-31 -23 -120 -39 -151 -5 -8 -17 -17 -27 -19 -34 -6 -114 -72 -120 -98 -10
-38 -81 -106 -102 -97 -9 4 -20 8 -24 8 -5 1 -7 6 -5 11 1 6 5 9 10 7 4 -1 7
4 7 11 0 9 -14 14 -45 14 -38 0 -45 -3 -45 -19 0 -24 -49 -90 -61 -82 -6 3
-50 0 -100 -7 -74 -10 -92 -16 -101 -33 -6 -12 -25 -33 -42 -47 -24 -21 -32
-36 -34 -70 -5 -77 -4 -93 10 -143 14 -48 14 -48 -15 -77 l-29 -29 20 -33 c12
-17 35 -41 53 -51 32 -20 90 -20 3867 -20 2970 -1 3841 2 3863 11 75 32 60
152 -25 197 -20 11 -36 23 -36 27 0 5 -18 36 -39 69 -53 82 -122 136 -162 128
-10 -2 -14 9 -16 35 -1 40 -17 67 -39 67 -24 0 -43 44 -70 165 -14 66 -29 127
-34 135 -12 24 -42 24 -60 -1 -18 -22 -18 -22 -56 -4 -22 10 -41 19 -44 21
-14 7 -109 -51 -142 -87 -40 -41 -76 -51 -98 -24 -7 8 -18 15 -24 15 -7 0 -27
11 -45 24 -36 27 -58 25 -94 -8 -18 -16 -38 -21 -90 -23 -65 -2 -67 -2 -93 33
-20 25 -29 51 -32 90 -4 49 -10 61 -53 109 -27 29 -49 58 -49 65 0 6 10 20 22
30 19 15 21 21 11 42 -8 17 -29 30 -81 47 -39 12 -72 26 -74 30 -7 17 -92 51
-126 51 -43 0 -62 14 -62 46 0 13 -6 29 -12 36 -7 7 -22 29 -32 48 -20 36 -76
94 -108 111 -9 5 -37 7 -60 3 -70 -9 -73 -12 -53 -34 20 -22 14 -50 -12 -50
-20 1 -53 23 -53 36 0 5 -10 28 -22 51 -16 30 -29 43 -43 42 -17 -1 -17 -2 -2
-6 18 -5 24 -23 7 -23 -5 0 -10 -11 -10 -25 0 -20 -5 -25 -24 -25 -14 0 -28 5
-31 10 -4 6 -13 7 -24 1 -10 -6 -23 -6 -32 0 -12 7 -12 9 1 9 12 0 16 13 17
58 0 33 -2 49 -6 38 -7 -18 -8 -18 -14 -2 -4 10 -5 21 -3 24 2 4 1 28 -4 54
-4 27 -4 48 0 48 15 0 76 -34 87 -49 19 -25 15 -10 -12 43 -14 27 -25 55 -25
62 0 7 -14 22 -30 34 -17 12 -36 36 -44 53 -15 38 -71 95 -104 108 -42 16
-106 11 -130 -11 -12 -12 -22 -25 -22 -30 0 -13 -43 -57 -81 -83 -31 -20 -42
-23 -74 -19 -6 1 -19 17 -29 36 -10 19 -26 37 -35 40 -9 4 -32 15 -51 26 -19
10 -52 19 -73 20 -33 0 -49 10 -123 75 -48 43 -97 78 -113 81 -18 4 -31 14
-34 26 -5 16 -13 19 -45 17 -22 -2 -46 2 -54 8 -20 17 -150 44 -263 54 -187
18 -187 18 -205 0 -20 -18 -35 -81 -20 -81 6 0 10 -4 10 -10 0 -5 -7 -10 -16
-10 -9 0 -18 -9 -21 -19 -7 -27 -46 -34 -98 -17 -24 9 -62 17 -85 18 -31 2
-42 8 -46 23 -3 11 -3 216 -1 455 4 517 1 492 133 1060 19 85 42 184 50 220
35 158 207 841 226 900 11 36 35 88 53 115 18 28 36 61 40 75 33 114 360 600
449 669 19 14 41 37 50 51 8 14 26 37 40 52 14 15 26 30 26 33 0 3 -15 5 -34
5 -26 0 -41 -7 -60 -31 -32 -38 -34 -59 -3 -33 l22 19 -19 -23 c-11 -12 -21
-20 -24 -17 -9 8 -42 -27 -42 -45 0 -9 -14 -29 -32 -46 -20 -18 -29 -23 -25
-12 3 10 2 20 -3 23 -6 4 -10 44 -10 90 l0 83 52 64 c29 34 81 92 115 128 36
36 61 70 58 78 -2 7 -1 11 4 8 4 -3 16 3 25 13 14 16 15 20 2 30 -12 10 -13 8
-9 -10 4 -16 3 -20 -6 -15 -7 5 -24 9 -38 11 -14 1 -28 7 -32 12 -10 16 -51
26 -51 13 0 -6 -4 -9 -9 -5 -6 3 -11 -11 -13 -32 -2 -20 -8 -38 -14 -40 -18
-6 -26 28 -11 46 8 9 12 22 10 29 -3 7 4 12 16 12 28 0 27 17 -1 23 l-23 4 22
8 c12 4 24 14 27 22 3 8 11 11 17 7 7 -4 10 -3 6 2 -3 5 1 18 9 29 8 10 14 15
14 9 1 -5 10 9 20 30 30 59 25 97 -8 64 -8 -8 -12 -9 -12 -1 0 6 6 13 13 16 6
2 9 8 4 12 -4 5 -20 -2 -35 -16 -15 -13 -37 -30 -50 -37 -22 -12 -23 -11 -20
10 2 13 8 26 13 30 6 5 5 8 -2 8 -20 0 -15 18 6 25 19 6 48 65 32 65 -5 0 -20
-9 -35 -21 -30 -24 -46 -18 -46 18 0 20 -3 24 -17 17 -10 -4 -28 -7 -40 -7
-13 1 -23 -2 -23 -6 0 -3 -8 -11 -18 -18 -14 -8 -32 -8 -73 2 -49 12 -51 13
-19 14 55 1 66 20 28 48 l-32 23 37 0 c39 0 45 8 25 29 -7 7 -8 11 -3 9 6 -1
20 4 33 13 20 15 21 19 11 43 -7 14 -15 26 -18 26 -4 0 -15 15 -25 34 -10 18
-28 39 -41 46 -12 7 -39 34 -60 62 -25 32 -48 51 -66 55 -34 6 -44 6 -44 -4
-1 -20 -17 -31 -38 -26 -37 10 -47 24 -47 68 0 56 75 475 115 640 14 55 29
141 35 190 14 111 22 158 55 305 29 134 30 140 10 166 -13 18 -14 16 -15 -23z
m-190 -1477 c0 -13 6 -29 14 -35 8 -6 16 -21 19 -32 3 -12 3 -18 0 -15 -9 9
-34 -15 -27 -26 4 -6 -2 -8 -15 -3 -12 4 -21 2 -21 -4 0 -6 -5 -11 -11 -11
-14 0 -5 110 11 141 13 24 30 16 30 -15z m11 -468 c27 -38 136 -184 209 -278
27 -36 66 -97 85 -136 34 -68 36 -77 34 -164 l-2 -93 -48 -71 c-27 -39 -69
-98 -94 -131 -25 -33 -48 -67 -52 -75 -13 -28 -122 -176 -144 -196 l-21 -19 6
32 c9 39 -7 73 -34 73 -13 0 -22 10 -27 28 -11 36 -10 1152 0 1177 7 16 13 9
36 -47 16 -36 39 -81 52 -100z m-147 -4078 c-6 -6 -19 -7 -30 -3 -17 6 -17 8
6 13 29 8 38 4 24 -10z m-1934 -540 c0 -5 -4 -10 -10 -10 -5 0 -10 5 -10 10 0
6 5 10 10 10 6 0 10 -4 10 -10z m3509 -62 c10 -30 9 -31 -4 -14 -8 11 -15 26
-15 33 0 22 8 14 19 -19z m-509 -33 c0 -14 -3 -25 -7 -25 -5 0 -8 11 -8 25 0
14 3 25 8 25 4 0 7 -11 7 -25z m150 -248 c0 -13 -29 12 -42 37 -10 19 -8 18
16 -3 14 -14 26 -29 26 -34z m-90 14 c0 -6 -4 -13 -10 -16 -5 -3 -10 1 -10 9
0 9 5 16 10 16 6 0 10 -4 10 -9z m-3780 -40 c0 -12 -28 -22 -34 -12 -3 5 -3
11 1 15 9 9 33 7 33 -3z m4177 -253 c-6 -4 -17 -2 -24 4 -22 18 -15 27 11 15
16 -8 20 -14 13 -19z m103 -8 c13 -8 13 -10 -2 -10 -9 0 -20 5 -23 10 -8 13 5
13 25 0z m1110 -205 c0 -3 -9 -24 -21 -46 -17 -33 -23 -38 -35 -29 -19 17 -18
28 9 56 20 21 47 32 47 19z m-6573 -143 c19 -12 -5 -94 -26 -90 -18 4 -26 38
-17 74 6 24 21 30 43 16z m38 -22 c3 -5 1 -10 -4 -10 -6 0 -11 5 -11 10 0 6 2
10 4 10 3 0 8 -4 11 -10z m6665 -215 c0 -18 -1 -18 -36 0 l-29 15 33 0 c22 0
32 -5 32 -15z m-990 -16 c0 -6 -4 -7 -10 -4 -5 3 -10 11 -10 16 0 6 5 7 10 4
6 -3 10 -11 10 -16z"/>
<path d="M7981 10250 c-10 -220 -10 -274 -1 -258 13 21 19 174 10 248 l-7 55
-2 -45z"/>
<path d="M7016 10185 c4 -8 11 -15 16 -15 6 0 5 6 -2 15 -7 8 -14 15 -16 15
-2 0 -1 -7 2 -15z"/>
<path d="M8067 10169 c-10 -35 -8 -59 3 -59 14 0 23 46 12 65 -8 15 -10 14
-15 -6z"/>
<path d="M7041 10049 c-1 -15 7 -37 18 -50 10 -13 41 -67 70 -119 28 -52 51
-92 51 -88 0 3 -22 53 -50 110 -27 56 -50 108 -50 115 0 7 -6 16 -14 20 -7 4
-16 15 -19 23 -3 9 -6 5 -6 -11z"/>
<path d="M9419 9393 c-8 -10 -21 -31 -29 -46 -8 -15 -34 -43 -59 -62 -91 -67
-108 -80 -210 -153 -85 -62 -100 -77 -86 -84 9 -6 19 -7 22 -4 4 3 0 6 -7 6
-11 0 33 38 94 79 12 8 30 22 41 32 11 9 49 32 84 50 38 20 78 52 100 78 20
25 56 57 80 73 35 22 40 28 23 28 -12 0 -22 5 -22 10 0 16 -15 12 -31 -7z"/>
<path d="M9508 9393 c7 -3 16 -2 19 1 4 3 -2 6 -13 5 -11 0 -14 -3 -6 -6z"/>
<path d="M10075 9224 c-48 -8 -125 -35 -125 -44 0 -5 -16 -6 -36 -3 -34 6 -35
5 -23 -15 15 -23 40 -28 215 -38 104 -6 112 -8 122 -29 18 -39 62 -21 62 25 0
20 4 28 13 24 8 -3 18 6 25 20 10 23 8 25 -30 41 -41 16 -169 27 -223 19z"/>
<path d="M8350 9134 c0 -5 7 -19 15 -30 17 -23 20 -87 4 -116 -12 -23 -12 -23
19 -33 22 -6 23 -5 17 39 -7 50 -2 55 29 29 11 -11 6 1 -12 27 -53 73 -72 96
-72 84z"/>
<path d="M8949 8977 c-24 -19 -57 -40 -74 -48 -16 -8 -79 -54 -140 -101 -134
-104 -153 -115 -161 -93 -4 8 -4 46 -2 85 3 54 8 74 26 93 l22 24 -31 -5 c-24
-3 -36 0 -46 14 -12 16 -13 16 -13 1 0 -23 -9 -21 -37 5 -20 19 -19 13 12 -46
38 -73 46 -141 23 -207 -8 -26 -141 -197 -178 -229 -3 -3 -32 -36 -65 -75 -33
-38 -70 -81 -82 -95 -64 -74 -73 -86 -73 -92 0 -21 39 -4 60 25 44 60 194 231
294 334 109 113 271 250 356 299 30 18 67 42 82 54 15 12 53 37 85 56 l57 34
-36 0 c-24 0 -48 -10 -79 -33z"/>
<path d="M7861 8813 c0 -6 -4 -20 -7 -30 -5 -14 -4 -15 5 -7 7 7 11 20 8 30
-3 11 -5 14 -6 7z"/>
<path d="M8220 8691 c0 -5 5 -13 10 -16 6 -3 10 -2 10 4 0 5 -4 13 -10 16 -5
3 -10 2 -10 -4z"/>
<path d="M8185 8632 c-5 -4 -11 -16 -13 -27 -3 -20 -2 -20 13 -1 21 27 21 44
0 28z"/>
<path d="M8255 8570 c-3 -6 1 -7 9 -4 18 7 21 14 7 14 -6 0 -13 -4 -16 -10z"/>
<path d="M4350 8523 c0 -3 10 -15 23 -27 96 -87 115 -106 135 -131 14 -17 50
-40 94 -57 68 -28 104 -32 56 -7 -27 14 -132 98 -203 163 -45 41 -105 75 -105
59z"/>
<path d="M8100 8521 c0 -11 39 -25 47 -18 3 3 2 10 -2 16 -8 13 -45 15 -45 2z"/>
<path d="M8170 8510 c0 -11 5 -20 10 -20 6 0 10 9 10 20 0 11 -4 20 -10 20 -5
0 -10 -9 -10 -20z"/>
<path d="M8098 8473 c7 -3 16 -2 19 1 4 3 -2 6 -13 5 -11 0 -14 -3 -6 -6z"/>
<path d="M8138 8473 c7 -3 16 -2 19 1 4 3 -2 6 -13 5 -11 0 -14 -3 -6 -6z"/>
<path d="M8162 8458 c-16 -16 -15 -28 3 -28 8 0 15 2 15 4 0 2 3 11 6 20 7 19
-7 21 -24 4z"/>
<path d="M8070 8436 c0 -2 7 -7 16 -10 8 -3 12 -2 9 4 -6 10 -25 14 -25 6z"/>
<path d="M5070 8254 c0 -42 12 -83 27 -88 12 -5 13 0 8 25 -4 17 -13 42 -21
57 -12 24 -14 25 -14 6z"/>
<path d="M5024 8201 c4 -6 16 -16 28 -22 15 -8 18 -8 14 0 -4 6 -16 16 -28 22
-15 8 -18 8 -14 0z"/>
<path d="M5680 8180 c-1 -8 -2 -27 -2 -42 -1 -17 -8 -29 -23 -36 -22 -10 -55
-62 -55 -86 0 -6 -8 -19 -17 -28 -30 -28 -38 -41 -51 -84 -15 -52 -15 -54 3
-54 12 0 13 -5 4 -27 -14 -36 -5 -53 29 -53 34 0 52 -16 52 -47 0 -12 6 -26
13 -30 8 -4 16 -15 19 -24 5 -12 26 -18 85 -23 51 -5 98 -16 133 -32 29 -13
55 -23 57 -20 5 4 -11 134 -33 271 -17 111 -57 194 -120 255 -26 25 -44 38
-41 29 4 -12 0 -15 -18 -11 -17 3 -25 12 -28 31 -2 14 -5 19 -7 11z"/>
<path d="M5090 8105 c0 -11 32 -67 36 -63 6 7 -19 68 -28 68 -4 0 -8 -2 -8 -5z"/>
<path d="M5054 8052 c25 -19 44 -44 55 -74 12 -33 32 -59 76 -95 33 -28 107
-96 165 -151 98 -95 140 -121 140 -88 0 12 -178 185 -239 231 -54 41 -141 136
-147 160 -7 28 -31 45 -65 45 -20 0 -18 -4 15 -28z"/>
<path d="M5004 8051 c21 -23 26 -26 26 -11 0 5 -10 15 -22 21 -23 12 -23 12
-4 -10z"/>
<path d="M9695 7876 c-13 -15 -17 -58 -7 -74 10 -14 62 -27 62 -15 0 5 -5 24
-10 44 -12 44 -30 62 -45 45z"/>
<path d="M9590 7791 c0 -17 96 -71 128 -71 18 0 32 4 32 9 0 13 -26 32 -33 24
-4 -3 -7 -1 -7 7 0 10 -3 10 -15 0 -12 -10 -23 -7 -60 14 -25 15 -45 23 -45
17z"/>
<path d="M4301 7763 c-42 -29 -110 -96 -136 -133 -41 -59 -91 -193 -101 -267
-2 -24 -16 -65 -29 -92 -14 -27 -25 -55 -25 -62 0 -6 -11 -27 -25 -45 -36 -47
-33 -64 10 -64 43 0 101 23 133 53 13 12 27 21 30 21 9 -2 30 6 107 40 93 42
105 48 100 57 -3 4 4 5 15 2 11 -3 20 -1 20 4 0 5 10 9 22 10 11 1 24 6 27 10
3 4 11 9 16 10 62 14 180 75 180 92 0 7 5 15 11 19 6 4 11 21 12 39 0 25 -4
32 -21 35 -19 3 -22 10 -24 51 -2 36 1 47 12 47 8 0 15 5 15 11 0 6 7 9 15 5
9 -3 15 0 15 9 0 8 -9 15 -20 15 -11 0 -20 3 -20 8 0 4 -12 15 -27 25 l-28 17
25 -4 c76 -14 100 -16 100 -8 0 12 -25 22 -55 22 -33 0 -55 10 -55 25 0 8 -10
17 -22 21 -23 7 -35 4 -31 -7 1 -3 -5 -6 -13 -6 -7 0 -14 7 -14 14 0 11 -15
14 -62 12 -67 -2 -108 6 -108 22 0 14 -23 11 -49 -8z"/>
<path d="M9804 7676 c-5 -12 -14 -16 -29 -12 -25 6 -51 -16 -40 -34 3 -5 21
-10 39 -10 25 0 36 6 46 25 10 19 11 28 2 37 -9 9 -13 7 -18 -6z"/>
<path d="M4745 7630 c3 -5 8 -10 11 -10 2 0 4 5 4 10 0 6 -5 10 -11 10 -5 0
-7 -4 -4 -10z"/>
<path d="M6230 7479 c-36 -17 -76 -43 -90 -58 -14 -16 -35 -31 -48 -35 -12 -4
-22 -11 -22 -15 0 -5 -17 -30 -37 -57 -47 -61 -51 -83 -22 -105 19 -14 21 -20
10 -32 -24 -30 -41 -8 -41 54 0 53 -2 59 -22 63 -60 12 -78 16 -95 23 -13 4
-10 -1 9 -19 38 -36 57 -78 64 -144 6 -51 17 -72 98 -191 50 -73 116 -171 146
-218 32 -49 71 -96 93 -110 20 -14 37 -30 37 -35 0 -5 21 -25 46 -45 49 -37
91 -47 80 -20 -3 9 0 15 8 15 9 0 19 21 26 51 7 29 32 93 56 144 69 148 84
203 84 304 0 72 -6 107 -30 182 -44 135 -73 181 -137 223 -49 32 -110 57 -138
56 -5 -1 -39 -15 -75 -31z m-164 -442 c24 -34 97 -140 162 -236 64 -95 134
-187 155 -204 39 -32 46 -47 24 -47 -27 0 -86 68 -168 195 -46 72 -112 170
-147 219 -35 48 -72 108 -83 133 -23 53 -24 69 -3 30 8 -15 35 -56 60 -90z"/>
<path d="M5740 7331 c1 -3 14 -22 30 -41 17 -19 30 -37 30 -41 0 -4 27 -34 60
-68 l60 -62 0 31 c0 42 -20 77 -74 130 -39 38 -107 71 -106 51z"/>
<path d="M5869 7122 c6 -9 33 -42 61 -72 56 -60 49 -32 -8 37 -38 45 -71 67
-53 35z"/>
<path d="M6470 6500 c-8 -5 -12 -11 -9 -14 2 -3 11 -1 19 4 8 5 12 11 9 14 -2
3 -11 1 -19 -4z"/>
<path d="M6385 6430 c-3 -5 1 -10 9 -10 9 0 16 5 16 10 0 6 -4 10 -9 10 -6 0
-13 -4 -16 -10z"/>
<path d="M5927 6338 c8 -44 26 -70 97 -145 76 -79 103 -89 188 -68 86 22 146
65 164 118 8 25 -14 48 -40 42 -11 -3 -41 -10 -66 -16 -93 -22 -94 -22 -122 5
-15 13 -38 26 -50 28 -13 2 -30 11 -38 20 -8 10 -34 19 -56 22 -23 2 -51 9
-63 15 -19 11 -20 10 -14 -21z"/>
<path d="M8815 4020 c-3 -5 -1 -10 4 -10 6 0 11 5 11 10 0 6 -2 10 -4 10 -3 0
-8 -4 -11 -10z"/>
<path d="M8870 3968 c0 -30 13 -58 26 -58 17 0 18 11 2 45 -12 26 -28 34 -28
13z"/>
<path d="M8827 3954 c-4 -4 -7 -14 -7 -23 0 -11 3 -12 11 -4 6 6 10 16 7 23
-2 6 -7 8 -11 4z"/>
<path d="M8846 3903 c8 -34 13 -43 23 -43 4 0 3 16 -3 35 -13 41 -29 47 -20 8z"/>
</g>
</svg>
